<?xml version="1.0" encoding="iso-8859-1"?>
<!-- Generator: Adobe Illustrator 19.0.0, SVG Export Plug-In . SVG Version: 6.00 Build 0)  -->
<svg version="1.1" id="Capa_1" xmlns="http://www.w3.org/2000/svg" xmlns:xlink="http://www.w3.org/1999/xlink" x="0px" y="0px"
	 viewBox="0 0 468.515 468.515" style="enable-background:new 0 0 468.515 468.515;" xml:space="preserve">
<path style="fill:#FCD462;" d="M366.825,395.521H24.976C11.182,395.521,0,384.339,0,370.546V129.313
	c0-13.794,11.182-24.976,24.976-24.976H391.8v266.208C391.8,384.339,380.618,395.521,366.825,395.521z"/>
<path style="fill:#F6C358;" d="M370.904,395.521H20.896C9.355,395.521,0,386.166,0,374.625V177.474
	c0-8.655,7.017-15.672,15.672-15.672h178.519c6.783,0,12.796-4.363,14.899-10.811l21.918-67.185
	c2.104-6.448,8.117-10.811,14.899-10.811h130.221c8.655,0,15.672,7.017,15.672,15.672v285.959
	C391.8,386.166,382.445,395.521,370.904,395.521z"/>
<g>
	
		<rect x="338.487" y="154.854" transform="matrix(-0.6205 -0.7842 0.7842 -0.6205 384.1791 648.2719)" style="fill:#E56353;" width="20.898" height="152.664"/>
	
		<rect x="364.416" y="187.586" transform="matrix(-0.6205 -0.7842 0.7842 -0.6205 400.532 721.6488)" style="fill:#E56353;" width="20.898" height="152.664"/>
</g>
<rect x="351.434" y="171.201" transform="matrix(-0.6205 -0.7842 0.7842 -0.6205 392.3413 684.9169)" style="fill:#D15241;" width="20.898" height="152.664"/>
<path style="fill:#EBF0F3;" d="M321.51,319.467l-32.895,3.049l-16.35,1.539c-3.767,0.355-6.65-3.288-5.439-6.873l5.256-15.559
	l10.527-31.314L321.51,319.467z"/>
<path style="fill:#44C4A1;" d="M441.203,224.743l-38.901-49.158l22.573-17.863c5.408-4.28,13.262-3.365,17.542,2.043l23.402,29.573
	c4.28,5.408,3.365,13.262-2.043,17.542L441.203,224.743z"/>
<path style="fill:#3A556A;" d="M288.615,322.516l-16.35,1.539c-3.767,0.355-6.65-3.288-5.439-6.873l5.256-15.559L288.615,322.516z"
	/>
<g>
</g>
<g>
</g>
<g>
</g>
<g>
</g>
<g>
</g>
<g>
</g>
<g>
</g>
<g>
</g>
<g>
</g>
<g>
</g>
<g>
</g>
<g>
</g>
<g>
</g>
<g>
</g>
<g>
</g>
</svg>
