<?xml version="1.0" encoding="iso-8859-1"?>
<!-- Generator: Adobe Illustrator 19.0.0, SVG Export Plug-In . SVG Version: 6.00 Build 0)  -->
<svg version="1.1" id="Capa_1" xmlns="http://www.w3.org/2000/svg" xmlns:xlink="http://www.w3.org/1999/xlink" x="0px" y="0px"
	 viewBox="0 0 491.52 491.52" style="enable-background:new 0 0 491.52 491.52;" xml:space="preserve">
<circle style="fill:#45B39C;" cx="245.76" cy="245.76" r="245.76"/>
<path style="fill:#EBF0F3;" d="M288.942,104.96H145.854c-3.649,0-6.606,2.958-6.606,6.606v268.387c0,3.648,2.958,6.606,6.606,6.606
	h199.811c3.649,0,6.606-2.958,6.606-6.606V168.29c0-1.752-0.696-3.432-1.935-4.672l-56.723-56.724
	C292.375,105.656,290.694,104.96,288.942,104.96z"/>
<path style="fill:#D5D6DB;" d="M298.286,165.554h53.344c-0.324-0.705-0.734-1.376-1.293-1.935l-28.361-28.362l-28.362-28.362
	c-0.559-0.559-1.23-0.969-1.935-1.292v53.345C291.679,162.596,294.637,165.554,298.286,165.554z"/>
<g>
	<rect x="158.925" y="193.618" style="fill:#E1E6E9;" width="173.665" height="10.24"/>
	<rect x="158.925" y="223.565" style="fill:#E1E6E9;" width="173.665" height="10.24"/>
	<rect x="158.925" y="253.491" style="fill:#E1E6E9;" width="130.376" height="10.24"/>
</g>
<rect x="248.115" y="343.347" style="fill:#27A2DB;" width="84.454" height="10.24"/>
<rect x="158.925" y="160.41" style="fill:#44C4A1;" width="84.454" height="10.24"/>
<g>
	<polygon style="fill:#E1E6E9;" points="308.012,283.449 158.927,283.449 158.927,293.689 301.06,293.689 332.592,293.689 
		332.592,283.449 	"/>
	<polygon style="fill:#E1E6E9;" points="293.697,313.389 158.927,313.389 158.927,323.629 292.467,323.629 332.592,323.629 
		332.592,313.389 	"/>
</g>
<g>
</g>
<g>
</g>
<g>
</g>
<g>
</g>
<g>
</g>
<g>
</g>
<g>
</g>
<g>
</g>
<g>
</g>
<g>
</g>
<g>
</g>
<g>
</g>
<g>
</g>
<g>
</g>
<g>
</g>
</svg>
